<svg width="734" height="594" viewBox="0 0 734 594" fill="none" xmlns="http://www.w3.org/2000/svg">
<g filter="url(#filter0_b_3002_442)">
<rect x="122" y="52" width="490" height="490" rx="43" stroke="black" stroke-width="10"/>
</g>
<path d="M256.709 85.5455V231H239.095V104.011H238.243L202.732 127.591V109.693L239.095 85.5455H256.709Z" fill="black"/>
<path d="M240.533 483.989C231.158 483.989 222.801 482.379 215.462 479.159C208.17 475.939 202.37 471.465 198.061 465.736C193.8 459.959 191.48 453.259 191.101 445.636H208.999C209.377 450.324 210.987 454.372 213.828 457.781C216.669 461.143 220.386 463.747 224.979 465.594C229.571 467.44 234.661 468.364 240.249 468.364C246.499 468.364 252.038 467.275 256.868 465.097C261.697 462.919 265.485 459.888 268.232 456.006C270.978 452.123 272.351 447.625 272.351 442.511C272.351 437.161 271.025 432.45 268.374 428.378C265.722 424.259 261.839 421.039 256.726 418.719C251.612 416.399 245.362 415.239 237.976 415.239H226.328V399.614H237.976C243.752 399.614 248.819 398.572 253.175 396.489C257.578 394.405 261.011 391.47 263.473 387.682C265.982 383.894 267.237 379.443 267.237 374.33C267.237 369.405 266.148 365.12 263.97 361.474C261.792 357.829 258.714 354.988 254.737 352.952C250.807 350.916 246.167 349.898 240.817 349.898C235.798 349.898 231.063 350.821 226.612 352.668C222.209 354.467 218.61 357.095 215.817 360.551C213.023 363.96 211.508 368.08 211.271 372.909H194.226C194.51 365.286 196.806 358.61 201.115 352.881C205.424 347.104 211.058 342.606 218.018 339.386C225.026 336.167 232.72 334.557 241.101 334.557C250.097 334.557 257.815 336.38 264.254 340.026C270.694 343.624 275.642 348.383 279.098 354.301C282.554 360.22 284.283 366.612 284.283 373.477C284.283 381.669 282.128 388.652 277.82 394.429C273.558 400.205 267.758 404.206 260.419 406.432V407.568C269.605 409.083 276.778 412.99 281.939 419.287C287.1 425.537 289.68 433.278 289.68 442.511C289.68 450.419 287.526 457.521 283.217 463.818C278.956 470.068 273.132 474.992 265.746 478.591C258.359 482.189 249.955 483.989 240.533 483.989Z" fill="black"/>
<line x1="365.5" y1="48.991" x2="368.5" y2="546.991" stroke="black" stroke-width="3"/>
<line x1="117" y1="296.5" x2="617" y2="296.5" stroke="black" stroke-width="3"/>
<path d="M448.51 231V218.216L496.521 165.659C502.156 159.504 506.796 154.153 510.442 149.608C514.088 145.015 516.786 140.706 518.538 136.682C520.338 132.61 521.237 128.348 521.237 123.898C521.237 118.784 520.006 114.357 517.544 110.616C515.129 106.876 511.815 103.988 507.601 101.952C503.387 99.9157 498.652 98.8977 493.396 98.8977C487.809 98.8977 482.932 100.058 478.766 102.378C474.646 104.651 471.45 107.847 469.178 111.966C466.952 116.085 465.839 120.915 465.839 126.455H449.078C449.078 117.932 451.043 110.451 454.973 104.011C458.903 97.572 464.253 92.553 471.024 88.9545C477.842 85.3561 485.489 83.5568 493.964 83.5568C502.487 83.5568 510.039 85.3561 516.621 88.9545C523.202 92.553 528.363 97.4062 532.104 103.514C535.844 109.622 537.714 116.417 537.714 123.898C537.714 129.248 536.744 134.48 534.803 139.594C532.909 144.66 529.594 150.318 524.859 156.568C520.172 162.771 513.661 170.347 505.328 179.295L472.658 214.239V215.375H540.271V231H448.51Z" fill="black"/>
<path d="M603 418C603 481.493 551.309 533 487.5 533C423.691 533 372 481.493 372 418C372 354.507 423.691 303 487.5 303C551.309 303 603 354.507 603 418Z" stroke="black" stroke-width="10"/>
<defs>
<filter id="filter0_b_3002_442" x="97" y="27" width="540" height="540" filterUnits="userSpaceOnUse" color-interpolation-filters="sRGB">
<feFlood flood-opacity="0" result="BackgroundImageFix"/>
<feGaussianBlur in="BackgroundImageFix" stdDeviation="10"/>
<feComposite in2="SourceAlpha" operator="in" result="effect1_backgroundBlur_3002_442"/>
<feBlend mode="normal" in="SourceGraphic" in2="effect1_backgroundBlur_3002_442" result="shape"/>
</filter>
</defs>
</svg>
